<svg width="216" height="40" viewBox="0 0 216 40" fill="none" xmlns="http://www.w3.org/2000/svg">
<path d="M147.939 20.8999V27.1999H146.33V16.7272H147.885V18.3636H148.021C148.266 17.8317 148.639 17.4045 149.139 17.0817C149.639 16.7545 150.285 16.5908 151.076 16.5908C151.785 16.5908 152.405 16.7363 152.937 17.0272C153.469 17.3135 153.882 17.7499 154.178 18.3363C154.473 18.9181 154.621 19.6545 154.621 20.5454V27.1999H153.012V20.6545C153.012 19.8317 152.798 19.1908 152.371 18.7317C151.944 18.2681 151.357 18.0363 150.612 18.0363C150.098 18.0363 149.639 18.1476 149.235 18.3704C148.835 18.5931 148.519 18.9181 148.287 19.3454C148.055 19.7726 147.939 20.2908 147.939 20.8999Z" fill="white"/>
<path d="M141.775 27.2001V16.7273H143.384V27.2001H141.775ZM142.593 14.9819C142.279 14.9819 142.009 14.8751 141.781 14.6614C141.559 14.4478 141.447 14.191 141.447 13.891C141.447 13.591 141.559 13.3341 141.781 13.1205C142.009 12.9069 142.279 12.8 142.593 12.8C142.906 12.8 143.175 12.9069 143.397 13.1205C143.625 13.3341 143.738 13.591 143.738 13.891C143.738 14.191 143.625 14.4478 143.397 14.6614C143.175 14.8751 142.906 14.9819 142.593 14.9819Z" fill="white"/>
<path d="M134.036 27.4454C133.372 27.4454 132.77 27.3204 132.229 27.0704C131.688 26.8158 131.258 26.4499 130.94 25.9727C130.622 25.4908 130.463 24.909 130.463 24.2272C130.463 23.6272 130.581 23.1408 130.817 22.7681C131.054 22.3908 131.37 22.0954 131.765 21.8817C132.161 21.6681 132.597 21.509 133.074 21.4045C133.556 21.2954 134.04 21.209 134.527 21.1454C135.163 21.0636 135.679 21.0022 136.074 20.9613C136.474 20.9158 136.765 20.8408 136.947 20.7363C137.133 20.6317 137.227 20.4499 137.227 20.1908V20.1363C137.227 19.4636 137.042 18.9408 136.674 18.5681C136.311 18.1954 135.758 18.009 135.017 18.009C134.249 18.009 133.647 18.1772 133.211 18.5136C132.774 18.8499 132.467 19.209 132.29 19.5908L130.763 19.0454C131.036 18.409 131.399 17.9135 131.854 17.559C132.313 17.1999 132.813 16.9499 133.354 16.809C133.899 16.6635 134.436 16.5908 134.963 16.5908C135.299 16.5908 135.686 16.6317 136.122 16.7135C136.563 16.7908 136.988 16.9522 137.397 17.1976C137.811 17.4431 138.154 17.8135 138.427 18.309C138.699 18.8045 138.836 19.4681 138.836 20.2999V27.1999H137.227V25.7817H137.145C137.036 26.009 136.854 26.2522 136.599 26.5113C136.345 26.7704 136.006 26.9908 135.583 27.1727C135.161 27.3545 134.645 27.4454 134.036 27.4454ZM134.281 25.9999C134.917 25.9999 135.454 25.8749 135.89 25.6249C136.331 25.3749 136.663 25.0522 136.886 24.6567C137.113 24.2613 137.227 23.8454 137.227 23.409V21.9363C137.158 22.0181 137.008 22.0931 136.777 22.1613C136.549 22.2249 136.286 22.2817 135.986 22.3317C135.69 22.3772 135.402 22.4181 135.12 22.4545C134.842 22.4863 134.617 22.5136 134.445 22.5363C134.027 22.5908 133.636 22.6795 133.272 22.8022C132.913 22.9204 132.622 23.0999 132.399 23.3408C132.181 23.5772 132.072 23.8999 132.072 24.309C132.072 24.8681 132.279 25.2908 132.692 25.5772C133.111 25.859 133.64 25.9999 134.281 25.9999Z" fill="white"/>
<path d="M114.092 13.2363H116.11L120.855 24.8273H121.019L125.765 13.2363H127.783V27.2H126.201V16.5909H126.065L121.701 27.2H120.174L115.81 16.5909H115.674V27.2H114.092V13.2363Z" fill="white"/>
<path d="M72.1818 4H64.9091C63.3024 4 62 5.30245 62 6.9091V14.1818C62 15.7885 63.3024 17.0909 64.9091 17.0909H72.1818C73.7885 17.0909 75.0909 15.7885 75.0909 14.1818V6.9091C75.0909 5.30245 73.7885 4 72.1818 4Z" fill="white"/>
<path d="M91.092 4H83.8193C82.2126 4 80.9102 5.30245 80.9102 6.9091V14.1818C80.9102 15.7885 82.2126 17.0909 83.8193 17.0909H91.092C92.6986 17.0909 94.0011 15.7885 94.0011 14.1818V6.9091C94.0011 5.30245 92.6986 4 91.092 4Z" fill="white"/>
<path d="M72.1818 22.9089H64.9091C63.3024 22.9089 62 24.2114 62 25.818V33.0908C62 34.6974 63.3024 35.9999 64.9091 35.9999H72.1818C73.7885 35.9999 75.0909 34.6974 75.0909 33.0908V25.818C75.0909 24.2114 73.7885 22.9089 72.1818 22.9089Z" fill="white"/>
<path d="M91.092 22.9089H83.8193C82.2126 22.9089 80.9102 24.2114 80.9102 25.818V33.0908C80.9102 34.6974 82.2126 35.9999 83.8193 35.9999H91.092C92.6986 35.9999 94.0011 34.6974 94.0011 33.0908V25.818C94.0011 24.2114 92.6986 22.9089 91.092 22.9089Z" fill="white"/>
</svg>
