<svg width="216" height="40" viewBox="0 0 216 40" fill="none" xmlns="http://www.w3.org/2000/svg">
<path d="M186.995 27.4181C185.986 27.4181 185.116 27.1954 184.384 26.7499C183.656 26.2999 183.095 25.6727 182.7 24.8681C182.309 24.059 182.113 23.1181 182.113 22.0454C182.113 20.9726 182.309 20.0272 182.7 19.209C183.095 18.3863 183.645 17.7454 184.35 17.2863C185.059 16.8226 185.886 16.5908 186.831 16.5908C187.377 16.5908 187.916 16.6817 188.447 16.8635C188.979 17.0454 189.463 17.3408 189.9 17.7499C190.336 18.1545 190.684 18.6908 190.943 19.359C191.202 20.0272 191.331 20.8499 191.331 21.8272V22.509H183.259V21.1181H189.695C189.695 20.5272 189.577 19.9999 189.341 19.5363C189.109 19.0726 188.777 18.7067 188.345 18.4386C187.918 18.1704 187.413 18.0363 186.831 18.0363C186.191 18.0363 185.636 18.1954 185.168 18.5136C184.704 18.8272 184.347 19.2363 184.097 19.7408C183.847 20.2454 183.722 20.7863 183.722 21.3636V22.2908C183.722 23.0817 183.859 23.7522 184.131 24.3022C184.409 24.8477 184.793 25.2636 185.284 25.5499C185.775 25.8317 186.345 25.9727 186.995 25.9727C187.418 25.9727 187.8 25.9136 188.141 25.7954C188.486 25.6727 188.784 25.4908 189.034 25.2499C189.284 25.0045 189.477 24.6999 189.613 24.3363L191.168 24.7727C191.004 25.2999 190.729 25.7636 190.343 26.1636C189.956 26.559 189.479 26.8681 188.911 27.0908C188.343 27.309 187.704 27.4181 186.995 27.4181Z" fill="white"/>
<path d="M176.134 27.4181C175.152 27.4181 174.307 27.1863 173.598 26.7227C172.889 26.259 172.343 25.6204 171.961 24.8067C171.58 23.9931 171.389 23.0636 171.389 22.0181C171.389 20.9545 171.584 20.0158 171.975 19.2022C172.37 18.384 172.92 17.7454 173.625 17.2863C174.334 16.8226 175.161 16.5908 176.107 16.5908C176.843 16.5908 177.507 16.7272 178.098 16.9999C178.689 17.2726 179.173 17.6545 179.55 18.1454C179.927 18.6363 180.161 19.209 180.252 19.8636H178.643C178.521 19.3863 178.248 18.9636 177.825 18.5954C177.407 18.2226 176.843 18.0363 176.134 18.0363C175.507 18.0363 174.957 18.1999 174.484 18.5272C174.016 18.8499 173.65 19.3067 173.386 19.8976C173.127 20.484 172.998 21.1726 172.998 21.9636C172.998 22.7727 173.125 23.4772 173.38 24.0772C173.639 24.6772 174.002 25.1431 174.47 25.4749C174.943 25.8067 175.498 25.9727 176.134 25.9727C176.552 25.9727 176.932 25.8999 177.273 25.7545C177.614 25.609 177.902 25.3999 178.139 25.1272C178.375 24.8545 178.543 24.5272 178.643 24.1454H180.252C180.161 24.7636 179.936 25.3204 179.577 25.8158C179.223 26.3067 178.752 26.6977 178.166 26.9886C177.584 27.2749 176.907 27.4181 176.134 27.4181Z" fill="white"/>
<path d="M162.258 20.8999V27.1999H160.648V16.7272H162.203V18.3636H162.339C162.585 17.8317 162.958 17.4045 163.458 17.0817C163.958 16.7545 164.603 16.5908 165.394 16.5908C166.103 16.5908 166.723 16.7363 167.255 17.0272C167.787 17.3135 168.201 17.7499 168.496 18.3363C168.792 18.9181 168.939 19.6545 168.939 20.5454V27.1999H167.33V20.6545C167.33 19.8317 167.117 19.1908 166.689 18.7317C166.262 18.2681 165.676 18.0363 164.93 18.0363C164.417 18.0363 163.958 18.1476 163.553 18.3704C163.153 18.5931 162.837 18.9181 162.605 19.3454C162.373 19.7726 162.258 20.2908 162.258 20.8999Z" fill="white"/>
<path d="M152.911 27.4454C152.247 27.4454 151.645 27.3204 151.104 27.0704C150.563 26.8158 150.133 26.4499 149.815 25.9727C149.497 25.4908 149.338 24.909 149.338 24.2272C149.338 23.6272 149.456 23.1408 149.692 22.7681C149.929 22.3908 150.245 22.0954 150.64 21.8817C151.036 21.6681 151.472 21.509 151.949 21.4045C152.431 21.2954 152.915 21.209 153.402 21.1454C154.038 21.0636 154.554 21.0022 154.949 20.9613C155.349 20.9158 155.64 20.8408 155.822 20.7363C156.008 20.6317 156.102 20.4499 156.102 20.1908V20.1363C156.102 19.4636 155.917 18.9408 155.549 18.5681C155.186 18.1954 154.633 18.009 153.892 18.009C153.124 18.009 152.522 18.1772 152.086 18.5136C151.649 18.8499 151.342 19.209 151.165 19.5908L149.638 19.0454C149.911 18.409 150.274 17.9135 150.729 17.559C151.188 17.1999 151.688 16.9499 152.229 16.809C152.774 16.6635 153.311 16.5908 153.838 16.5908C154.174 16.5908 154.561 16.6317 154.997 16.7135C155.438 16.7908 155.863 16.9522 156.272 17.1976C156.686 17.4431 157.029 17.8135 157.302 18.309C157.574 18.8045 157.711 19.4681 157.711 20.2999V27.1999H156.102V25.7817H156.02C155.911 26.009 155.729 26.2522 155.474 26.5113C155.22 26.7704 154.881 26.9908 154.458 27.1727C154.036 27.3545 153.52 27.4454 152.911 27.4454ZM153.156 25.9999C153.792 25.9999 154.329 25.8749 154.765 25.6249C155.206 25.3749 155.538 25.0522 155.761 24.6567C155.988 24.2613 156.102 23.8454 156.102 23.409V21.9363C156.033 22.0181 155.883 22.0931 155.652 22.1613C155.424 22.2249 155.161 22.2817 154.861 22.3317C154.565 22.3772 154.277 22.4181 153.995 22.4545C153.717 22.4863 153.492 22.5136 153.32 22.5363C152.902 22.5908 152.511 22.6795 152.147 22.8022C151.788 22.9204 151.497 23.0999 151.274 23.3408C151.056 23.5772 150.947 23.8999 150.947 24.309C150.947 24.8681 151.154 25.2908 151.567 25.5772C151.986 25.859 152.515 25.9999 153.156 25.9999Z" fill="white"/>
<path d="M140.207 20.8999V27.1999H138.598V16.7272H140.152V18.3636H140.289C140.534 17.8317 140.907 17.4045 141.407 17.0817C141.907 16.7545 142.552 16.5908 143.343 16.5908C144.052 16.5908 144.673 16.7363 145.204 17.0272C145.736 17.3135 146.15 17.7499 146.445 18.3363C146.741 18.9181 146.889 19.6545 146.889 20.5454V27.1999H145.279V20.6545C145.279 19.8317 145.066 19.1908 144.639 18.7317C144.211 18.2681 143.625 18.0363 142.879 18.0363C142.366 18.0363 141.907 18.1476 141.502 18.3704C141.102 18.5931 140.786 18.9181 140.554 19.3454C140.323 19.7726 140.207 20.2908 140.207 20.8999Z" fill="white"/>
<path d="M131.813 27.4181C130.804 27.4181 129.934 27.1954 129.202 26.7499C128.475 26.2999 127.913 25.6727 127.518 24.8681C127.127 24.059 126.932 23.1181 126.932 22.0454C126.932 20.9726 127.127 20.0272 127.518 19.209C127.913 18.3863 128.463 17.7454 129.168 17.2863C129.877 16.8226 130.704 16.5908 131.65 16.5908C132.195 16.5908 132.734 16.6817 133.266 16.8635C133.798 17.0454 134.282 17.3408 134.718 17.7499C135.154 18.1545 135.502 18.6908 135.761 19.359C136.02 20.0272 136.15 20.8499 136.15 21.8272V22.509H128.077V21.1181H134.513C134.513 20.5272 134.395 19.9999 134.159 19.5363C133.927 19.0726 133.595 18.7067 133.163 18.4386C132.736 18.1704 132.232 18.0363 131.65 18.0363C131.009 18.0363 130.454 18.1954 129.986 18.5136C129.523 18.8272 129.166 19.2363 128.916 19.7408C128.666 20.2454 128.541 20.7863 128.541 21.3636V22.2908C128.541 23.0817 128.677 23.7522 128.95 24.3022C129.227 24.8477 129.611 25.2636 130.102 25.5499C130.593 25.8317 131.163 25.9727 131.813 25.9727C132.236 25.9727 132.618 25.9136 132.959 25.7954C133.304 25.6727 133.602 25.4908 133.852 25.2499C134.102 25.0045 134.295 24.6999 134.432 24.3363L135.986 24.7727C135.823 25.2999 135.548 25.7636 135.161 26.1636C134.775 26.559 134.298 26.8681 133.729 27.0908C133.161 27.309 132.523 27.4181 131.813 27.4181Z" fill="white"/>
<path d="M125.117 16.7274V18.091H119.689V16.7274H125.117ZM121.271 14.2183H122.88V24.2001C122.88 24.6546 122.946 24.9956 123.078 25.2228C123.214 25.4456 123.387 25.5956 123.596 25.6728C123.81 25.7456 124.035 25.7819 124.271 25.7819C124.449 25.7819 124.594 25.7728 124.708 25.7546C124.821 25.7319 124.912 25.7137 124.98 25.7001L125.308 27.1456C125.199 27.1865 125.046 27.2274 124.851 27.2683C124.655 27.3137 124.408 27.3365 124.108 27.3365C123.653 27.3365 123.208 27.2387 122.771 27.0433C122.339 26.8478 121.98 26.5501 121.694 26.1501C121.412 25.7501 121.271 25.2456 121.271 24.6365V14.2183Z" fill="white"/>
<path d="M110.939 20.8999V27.1999H109.33V16.7272H110.885V18.3636H111.021C111.266 17.8317 111.639 17.4045 112.139 17.0817C112.639 16.7545 113.285 16.5908 114.076 16.5908C114.785 16.5908 115.405 16.7363 115.937 17.0272C116.469 17.3135 116.882 17.7499 117.178 18.3363C117.473 18.9181 117.621 19.6545 117.621 20.5454V27.1999H116.012V20.6545C116.012 19.8317 115.798 19.1908 115.371 18.7317C114.944 18.2681 114.357 18.0363 113.612 18.0363C113.098 18.0363 112.639 18.1476 112.235 18.3704C111.835 18.5931 111.519 18.9181 111.287 19.3454C111.055 19.7726 110.939 20.2908 110.939 20.8999Z" fill="white"/>
<path d="M104.775 27.2001V16.7273H106.384V27.2001H104.775ZM105.593 14.9819C105.279 14.9819 105.009 14.8751 104.781 14.6614C104.559 14.4478 104.447 14.191 104.447 13.891C104.447 13.591 104.559 13.3341 104.781 13.1205C105.009 12.9069 105.279 12.8 105.593 12.8C105.906 12.8 106.175 12.9069 106.397 13.1205C106.625 13.3341 106.738 13.591 106.738 13.891C106.738 14.191 106.625 14.4478 106.397 14.6614C106.175 14.8751 105.906 14.9819 105.593 14.9819Z" fill="white"/>
<path d="M97.0356 27.4454C96.372 27.4454 95.7697 27.3204 95.2288 27.0704C94.6879 26.8158 94.2583 26.4499 93.9402 25.9727C93.622 25.4908 93.4629 24.909 93.4629 24.2272C93.4629 23.6272 93.5811 23.1408 93.8174 22.7681C94.0538 22.3908 94.3697 22.0954 94.7652 21.8817C95.1606 21.6681 95.597 21.509 96.0743 21.4045C96.5561 21.2954 97.0402 21.209 97.5265 21.1454C98.1629 21.0636 98.6788 21.0022 99.0743 20.9613C99.4743 20.9158 99.7652 20.8408 99.947 20.7363C100.133 20.6317 100.227 20.4499 100.227 20.1908V20.1363C100.227 19.4636 100.042 18.9408 99.6743 18.5681C99.3106 18.1954 98.7584 18.009 98.0174 18.009C97.2493 18.009 96.647 18.1772 96.2106 18.5136C95.7743 18.8499 95.4674 19.209 95.2902 19.5908L93.7629 19.0454C94.0356 18.409 94.3993 17.9135 94.8538 17.559C95.3129 17.1999 95.8129 16.9499 96.3538 16.809C96.8993 16.6635 97.4356 16.5908 97.9629 16.5908C98.2993 16.5908 98.6856 16.6317 99.122 16.7135C99.5629 16.7908 99.9879 16.9522 100.397 17.1976C100.811 17.4431 101.154 17.8135 101.427 18.309C101.699 18.8045 101.836 19.4681 101.836 20.2999V27.1999H100.227V25.7817H100.145C100.036 26.009 99.8538 26.2522 99.5993 26.5113C99.3447 26.7704 99.0061 26.9908 98.5834 27.1727C98.1606 27.3545 97.6447 27.4454 97.0356 27.4454ZM97.2811 25.9999C97.9174 25.9999 98.4538 25.8749 98.8902 25.6249C99.3311 25.3749 99.6629 25.0522 99.8856 24.6567C100.113 24.2613 100.227 23.8454 100.227 23.409V21.9363C100.158 22.0181 100.008 22.0931 99.7765 22.1613C99.5493 22.2249 99.2856 22.2817 98.9856 22.3317C98.6902 22.3772 98.4015 22.4181 98.1197 22.4545C97.8424 22.4863 97.6174 22.5136 97.4447 22.5363C97.0265 22.5908 96.6356 22.6795 96.272 22.8022C95.9129 22.9204 95.622 23.0999 95.3993 23.3408C95.1811 23.5772 95.072 23.8999 95.072 24.309C95.072 24.8681 95.2788 25.2908 95.6924 25.5772C96.1106 25.859 96.6402 25.9999 97.2811 25.9999Z" fill="white"/>
<path d="M77.0918 13.2363H79.11L83.8554 24.8273H84.0191L88.7645 13.2363H90.7827V27.2H89.2009V16.5909H89.0645L84.7009 27.2H83.1736L78.81 16.5909H78.6736V27.2H77.0918V13.2363Z" fill="white"/>
<path fill-rule="evenodd" clip-rule="evenodd" d="M42.3525 6.62014L39.5618 6.6817L38.2308 4.18016C36.4047 3.89201 34.2376 4.94571 33.192 5.74861L33.539 9.01167C30.3049 11.7454 31.969 9.91449 28.6223 9.68386C27.6627 10.4307 26.2462 12.3252 26.1747 14.1485L28.2363 16.0303C28.2303 19.7965 27.6187 18.6177 25.0411 19.8556C24.8666 21.6516 25.2666 23.6768 25.8812 25.0222L28.9208 25.1105L30.3324 27.3567L28.8648 30.056C29.5123 31.3187 31.4299 32.9981 32.8005 33.4049L35.1896 31.6391C38.7748 32.1463 37.5097 32.8992 38.4223 35.5769C40.4224 36.0356 43.3295 36.4883 43.9091 34.4334C44.0431 33.9585 44.0886 32.9981 44.1416 32.4713L45.4961 31.9555C45.2756 31.1072 43.2285 28.915 42.6485 28.3448C37.2567 28.2272 34.2096 26.7799 32.809 22.5398C29.5848 12.7769 42.6315 6.7034 48.1458 14.9292C51.3509 19.7102 47.8462 21.5391 50.1199 24.0754C50.9179 24.9656 51.1339 25.2513 51.8994 26.1425C53.2655 25.6106 51.9454 25.4001 53.443 25.0979C54.3661 24.9116 57.5182 26.4725 56.9267 19.8853L54.1341 18.7892L53.561 15.889C54.5431 15.3445 54.9571 15.0266 55.7426 14.1485C55.7366 12.5851 54.3116 10.5488 53.391 9.69093C51.1169 9.65964 51.1434 11.1746 49.5183 9.94577C47.4707 8.39751 48.8733 8.16285 48.6003 5.71581C47.5282 4.89323 45.6816 4.03886 43.881 4C43.2685 4.64444 42.7155 5.7915 42.3525 6.62014ZM35.0716 17.9667C34.3026 20.8482 35.4386 23.3846 37.1432 24.8223C39.9444 27.1846 42.1045 25.0842 44.0781 27.4637C45.5551 29.2451 46.8082 30.7408 48.2793 32.5621C49.2618 33.7788 51.4874 37.5208 54.0586 35.3205C56.4937 33.2368 53.4185 30.5496 52.4025 29.3051C50.8939 27.4581 49.6083 25.926 48.0438 24.0669C45.9191 21.5421 48.0873 19.6032 46.3577 16.4123C45.3951 14.636 43.0875 12.5684 40.0934 13.3557C40.2194 15.0453 44.6196 17.4333 41.7489 20.4475C40.9269 21.3105 38.8678 21.5588 37.9653 20.6973C36.3092 19.1168 36.8782 18.4521 35.0726 17.9682L35.0716 17.9667Z" fill="white"/>
</svg>
