<svg width="216" height="40" viewBox="0 0 216 40" fill="none" xmlns="http://www.w3.org/2000/svg">
<path d="M148.085 27.4183C147.076 27.4183 146.205 27.1956 145.474 26.7502C144.746 26.3002 144.185 25.6729 143.789 24.8683C143.399 24.0592 143.203 23.1183 143.203 22.0456C143.203 20.9729 143.399 20.0274 143.789 19.2092C144.185 18.3865 144.735 17.7456 145.439 17.2865C146.149 16.8229 146.976 16.5911 147.921 16.5911C148.467 16.5911 149.005 16.682 149.537 16.8638C150.069 17.0456 150.553 17.3411 150.989 17.7502C151.426 18.1547 151.774 18.6911 152.033 19.3592C152.292 20.0274 152.421 20.8502 152.421 21.8274V22.5092H144.349V21.1183H150.785C150.785 20.5274 150.667 20.0002 150.43 19.5365C150.199 19.0729 149.867 18.707 149.435 18.4388C149.008 18.1706 148.503 18.0365 147.921 18.0365C147.28 18.0365 146.726 18.1956 146.258 18.5138C145.794 18.8274 145.437 19.2365 145.187 19.7411C144.937 20.2456 144.812 20.7865 144.812 21.3638V22.2911C144.812 23.082 144.949 23.7524 145.221 24.3024C145.499 24.8479 145.883 25.2638 146.374 25.5502C146.864 25.832 147.435 25.9729 148.085 25.9729C148.508 25.9729 148.889 25.9138 149.23 25.7956C149.576 25.6729 149.874 25.4911 150.124 25.2502C150.374 25.0047 150.567 24.7002 150.703 24.3365L152.258 24.7729C152.094 25.3002 151.819 25.7638 151.433 26.1638C151.046 26.5592 150.569 26.8683 150.001 27.0911C149.433 27.3092 148.794 27.4183 148.085 27.4183Z" fill="white"/>
<path d="M136.869 27.2003V16.7276H138.424V18.3094H138.533C138.724 17.7912 139.069 17.3708 139.569 17.0481C140.069 16.7253 140.633 16.564 141.26 16.564C141.378 16.564 141.526 16.5662 141.703 16.5708C141.881 16.5753 142.015 16.5821 142.106 16.5912V18.2276C142.051 18.214 141.926 18.1935 141.731 18.1662C141.54 18.1344 141.337 18.1185 141.124 18.1185C140.615 18.1185 140.16 18.2253 139.76 18.439C139.365 18.6481 139.051 18.939 138.819 19.3117C138.592 19.6799 138.478 20.1003 138.478 20.5731V27.2003H136.869Z" fill="white"/>
<path d="M129.131 27.4456C128.468 27.4456 127.865 27.3206 127.325 27.0706C126.784 26.8161 126.354 26.4502 126.036 25.9729C125.718 25.4911 125.559 24.9092 125.559 24.2274C125.559 23.6274 125.677 23.1411 125.913 22.7683C126.15 22.3911 126.465 22.0956 126.861 21.882C127.256 21.6683 127.693 21.5092 128.17 21.4047C128.652 21.2956 129.136 21.2092 129.622 21.1456C130.259 21.0638 130.775 21.0024 131.17 20.9615C131.57 20.9161 131.861 20.8411 132.043 20.7365C132.229 20.632 132.322 20.4502 132.322 20.1911V20.1365C132.322 19.4638 132.138 18.9411 131.77 18.5683C131.406 18.1956 130.854 18.0092 130.113 18.0092C129.345 18.0092 128.743 18.1774 128.306 18.5138C127.87 18.8502 127.563 19.2092 127.386 19.5911L125.859 19.0456C126.131 18.4092 126.495 17.9138 126.95 17.5592C127.409 17.2002 127.909 16.9502 128.45 16.8092C128.995 16.6638 129.531 16.5911 130.059 16.5911C130.395 16.5911 130.781 16.632 131.218 16.7138C131.659 16.7911 132.084 16.9524 132.493 17.1979C132.906 17.4433 133.25 17.8138 133.522 18.3092C133.795 18.8047 133.931 19.4683 133.931 20.3002V27.2002H132.322V25.782H132.24C132.131 26.0092 131.95 26.2524 131.695 26.5115C131.44 26.7706 131.102 26.9911 130.679 27.1729C130.256 27.3547 129.74 27.4456 129.131 27.4456ZM129.377 26.0002C130.013 26.0002 130.55 25.8752 130.986 25.6252C131.427 25.3752 131.759 25.0524 131.981 24.657C132.209 24.2615 132.322 23.8456 132.322 23.4092V21.9365C132.254 22.0183 132.104 22.0933 131.872 22.1615C131.645 22.2252 131.381 22.282 131.081 22.332C130.786 22.3774 130.497 22.4183 130.215 22.4547C129.938 22.4865 129.713 22.5138 129.54 22.5365C129.122 22.5911 128.731 22.6797 128.368 22.8024C128.009 22.9206 127.718 23.1002 127.495 23.3411C127.277 23.5774 127.168 23.9002 127.168 24.3092C127.168 24.8683 127.375 25.2911 127.788 25.5774C128.206 25.8592 128.736 26.0002 129.377 26.0002Z" fill="white"/>
<path d="M115 27.2002V13.2366H123.373V14.7366H116.691V19.4548H122.745V20.9548H116.691V27.2002H115Z" fill="white"/>
<path d="M94.3986 16.6982C94.5816 16.5878 94.7334 16.4295 94.8389 16.2392C94.9444 16.0489 95 15.8332 95 15.6136V10.2548C95 10.09 94.9687 9.92682 94.9079 9.77458C94.8471 9.62234 94.758 9.484 94.6456 9.36748C94.5333 9.25096 94.3999 9.15854 94.2531 9.09549C94.1063 9.03243 93.9489 8.99999 93.79 9H85.5882V11.0915C85.5882 11.4243 85.4607 11.7435 85.2338 11.9788C85.0069 12.2141 84.6991 12.3463 84.3782 12.3463C84.0573 12.3463 83.7495 12.2141 83.5226 11.9788C83.2957 11.7435 83.1682 11.4243 83.1682 11.0915V9H64.21C64.0511 8.99998 63.8937 9.03243 63.7469 9.09548C63.6001 9.15854 63.4667 9.25096 63.3544 9.36748C63.242 9.484 63.1529 9.62233 63.0921 9.77458C63.0313 9.92682 63 10.09 63 10.2548V15.6136C63 15.8332 63.0556 16.0489 63.1611 16.2392C63.2666 16.4295 63.4184 16.5878 63.6014 16.6982C64.1077 16.996 64.5288 17.4276 64.8217 17.9492C65.1147 18.4708 65.269 19.0636 65.2689 19.6672C65.2689 20.2708 65.1144 20.8636 64.8214 21.3851C64.5283 21.9066 64.1071 22.3382 63.6007 22.6358C63.4179 22.7463 63.2661 22.9046 63.1607 23.0949C63.0553 23.2852 62.9999 23.5009 63 23.7204V29.0786C63 29.2433 63.0313 29.4065 63.0921 29.5588C63.1529 29.711 63.242 29.8493 63.3544 29.9658C63.4667 30.0824 63.6001 30.1748 63.7469 30.2378C63.8937 30.3009 64.0511 30.3333 64.21 30.3333H83.1682V28.2418C83.1682 27.909 83.2957 27.5899 83.5226 27.3545C83.7495 27.1192 84.0573 26.987 84.3782 26.987C84.6991 26.987 85.0069 27.1192 85.2338 27.3545C85.4607 27.5899 85.5882 27.909 85.5882 28.2418V30.3333H93.79C93.9489 30.3333 94.1063 30.3009 94.2531 30.2378C94.3999 30.1748 94.5333 30.0824 94.6456 29.9658C94.758 29.8493 94.8471 29.711 94.9079 29.5588C94.9687 29.4065 95 29.2433 95 29.0786V23.7204C95 23.5008 94.9444 23.2852 94.8389 23.0948C94.7334 22.9045 94.5816 22.7462 94.3986 22.6358C93.8924 22.3381 93.4713 21.9064 93.1784 21.3849C92.8854 20.8633 92.7311 20.2706 92.7311 19.667C92.7311 19.0634 92.8854 18.4707 93.1784 17.9491C93.4713 17.4276 93.8924 16.996 94.3986 16.6982ZM85.5881 23.9195C85.5881 24.2523 85.4607 24.5714 85.2338 24.8068C85.0068 25.0421 84.6991 25.1743 84.3782 25.1743C84.0573 25.1743 83.7495 25.0421 83.5226 24.8068C83.2957 24.5714 83.1682 24.2523 83.1682 23.9195V21.828C83.1682 21.4952 83.2957 21.176 83.5226 20.9407C83.7495 20.7054 84.0573 20.5732 84.3782 20.5732C84.6991 20.5732 85.0068 20.7054 85.2338 20.9407C85.4607 21.176 85.5881 21.4952 85.5881 21.828V23.9195ZM85.5881 17.5053C85.5881 17.8381 85.4607 18.1573 85.2338 18.3926C85.0068 18.6279 84.6991 18.7601 84.3782 18.7601C84.0573 18.7601 83.7495 18.6279 83.5226 18.3926C83.2957 18.1573 83.1682 17.8381 83.1682 17.5053V15.4138C83.1682 15.081 83.2957 14.7619 83.5226 14.5266C83.7495 14.2912 84.0573 14.159 84.3782 14.159C84.6991 14.159 85.0068 14.2912 85.2338 14.5266C85.4607 14.7619 85.5881 15.081 85.5881 15.4138V17.5053Z" fill="white"/>
</svg>
