<svg width="216" height="40" viewBox="0 0 216 40" fill="none" xmlns="http://www.w3.org/2000/svg">
<path d="M151.078 16.7275C150.996 16.0366 150.665 15.5002 150.083 15.1184C149.501 14.7366 148.787 14.5457 147.942 14.5457C147.324 14.5457 146.783 14.6457 146.319 14.8457C145.86 15.0457 145.501 15.3207 145.242 15.6707C144.987 16.0207 144.86 16.4184 144.86 16.8638C144.86 17.2366 144.949 17.557 145.126 17.8252C145.308 18.0888 145.54 18.3093 145.821 18.4866C146.103 18.6593 146.399 18.8025 146.708 18.9161C147.017 19.0252 147.301 19.1138 147.56 19.182L148.978 19.5638C149.342 19.6593 149.746 19.7911 150.192 19.9593C150.642 20.1275 151.071 20.357 151.48 20.6479C151.894 20.9343 152.235 21.3025 152.503 21.7525C152.771 22.2025 152.905 22.7548 152.905 23.4093C152.905 24.1639 152.708 24.8457 152.312 25.4548C151.921 26.0639 151.349 26.548 150.594 26.907C149.844 27.2661 148.933 27.4457 147.86 27.4457C146.86 27.4457 145.994 27.2843 145.262 26.9616C144.535 26.6389 143.962 26.1889 143.544 25.6116C143.13 25.0343 142.896 24.3639 142.842 23.6002H144.587C144.633 24.1275 144.81 24.5639 145.119 24.9093C145.433 25.2502 145.828 25.5048 146.305 25.673C146.787 25.8366 147.305 25.9184 147.86 25.9184C148.505 25.9184 149.085 25.8139 149.599 25.6048C150.112 25.3911 150.519 25.0957 150.819 24.7184C151.119 24.3366 151.269 23.8911 151.269 23.382C151.269 22.9184 151.14 22.5411 150.88 22.2502C150.621 21.9593 150.28 21.7229 149.858 21.5411C149.435 21.3593 148.978 21.2002 148.487 21.0639L146.769 20.5729C145.678 20.2593 144.815 19.8116 144.178 19.2298C143.542 18.6479 143.224 17.8866 143.224 16.9457C143.224 16.1638 143.435 15.482 143.858 14.9002C144.285 14.3138 144.858 13.8593 145.576 13.5366C146.299 13.2093 147.105 13.0457 147.996 13.0457C148.896 13.0457 149.696 13.207 150.396 13.5297C151.096 13.8479 151.651 14.2843 152.06 14.8388C152.474 15.3934 152.692 16.0229 152.715 16.7275H151.078Z" fill="white"/>
<path d="M126.361 13.2366H128.38L133.125 24.8275H133.289L138.034 13.2366H140.052V27.2002H138.47V16.5911H138.334L133.97 27.2002H132.443L128.08 16.5911H127.943V27.2002H126.361V13.2366Z" fill="white"/>
<path d="M115.092 27.2002V13.2366H123.465V14.7366H116.783V19.4548H122.837V20.9548H116.783V27.2002H115.092Z" fill="white"/>
<path d="M79 6.80162C82.7202 6.80162 86.0815 8.34107 88.48 10.8161C89.0226 11.454 88.7028 12.3317 89.2522 13.2758C89.9956 14.5533 91.1149 14.7166 91.4347 15.5586C91.4891 15.71 91.5401 15.8648 91.5895 16.0196L91.6099 16.1302L91.6252 16.2628L91.632 16.3972L91.6286 16.5316L91.6167 16.6643L91.5946 16.797L91.564 16.9279L91.5248 17.0555L91.4755 17.1797L91.4177 17.3005L91.3513 17.4178L91.2782 17.5301L91.1982 17.6339L91.0945 17.7495L90.9839 17.855L90.8648 17.9503L90.7389 18.037L90.6063 18.1136L90.4685 18.1782L90.3256 18.2326L90.1793 18.2752L90.0296 18.3058L89.8782 18.3245L89.7251 18.3313L89.572 18.3245L89.4206 18.3058L89.2709 18.2752L89.1247 18.2326L88.9818 18.1782L88.844 18.1136L88.7113 18.0387L88.5854 17.952L88.4715 17.8601L88.3099 17.7053L88.2809 17.6781L88.2503 17.6526L87.7281 17.2035L87.6975 17.178L87.6669 17.1542L87.1191 16.7357L87.0868 16.7119L87.0545 16.6898L86.4846 16.302L86.4523 16.2798L86.4183 16.2594L85.828 15.9039L85.794 15.8835L85.7583 15.8648L85.1323 15.5348L85.0966 15.5161L85.0592 15.4991L84.4145 15.2065L84.377 15.1895L84.3396 15.1742L83.6796 14.919L83.6422 14.9037L83.6031 14.8918L82.9294 14.6741L82.8903 14.6622L82.8512 14.6519L82.1674 14.4733L82.1283 14.4631L82.0891 14.4546L81.3951 14.3168L81.356 14.3083L81.3152 14.3032L80.6143 14.2046L80.5735 14.1995L80.5327 14.1961L79.8284 14.1382L79.7876 14.1348H79.7468L79.0392 14.1161C79.0272 14.1161 79.0153 14.1161 79.0034 14.1161H78.9966C78.9847 14.1161 78.9728 14.1161 78.9609 14.1161L78.2533 14.1331H78.2124L78.1716 14.1382L77.4674 14.1961L77.4266 14.1995L77.3857 14.2046L76.6849 14.3032L76.6441 14.3083L76.605 14.3168L75.9109 14.4546L75.8718 14.4631L75.8327 14.4733L75.1489 14.6519L75.1097 14.6622L75.0706 14.6741L74.397 14.8918L74.3579 14.9037L74.3205 14.919L73.6604 15.1742L73.623 15.1895L73.5856 15.2065L72.9426 15.4991L72.9052 15.5161L72.8695 15.5348L72.2435 15.8648L72.2078 15.8835L72.1737 15.9039L71.5835 16.2594L71.5495 16.2798L71.5171 16.302L70.9473 16.6898L70.915 16.7119L70.8826 16.7357L70.3349 17.1542L70.3026 17.178L70.272 17.2035L69.7497 17.6526L69.7191 17.6781L69.6902 17.7053L69.5286 17.8601L69.4146 17.952L69.2888 18.0387L69.1561 18.1153L69.0183 18.1799L68.8754 18.2343L68.7291 18.2769L68.5794 18.3075L68.428 18.3262L68.2749 18.333L68.1218 18.3262L67.9705 18.3075L67.8208 18.2769L67.6745 18.2343L67.5316 18.1799L67.3938 18.1153L67.2611 18.0387L67.1352 17.952L67.0162 17.8567L66.9056 17.7512L66.8018 17.6356L66.7219 17.5318L66.6487 17.4195L66.5824 17.3022L66.5246 17.1814L66.4752 17.0572L66.4361 16.9296L66.4055 16.7987L66.3834 16.666L66.3715 16.5333L66.3681 16.3989L66.3749 16.2645L66.3902 16.1319L66.414 16.0094C66.4616 15.858 66.5127 15.71 66.5654 15.562C66.8852 14.72 68.0045 14.5567 68.7478 13.2792C69.3024 12.3283 68.9741 11.4455 69.532 10.8059C71.9305 8.33766 75.2849 6.80502 78.9983 6.80502L79 6.80162ZM79 17.491C77.6137 17.491 76.491 18.6137 76.491 20C76.491 21.3864 77.6137 22.5091 79 22.5091C80.3864 22.5091 81.5091 21.3864 81.5091 20C81.5091 18.6137 80.3864 17.491 79 17.491ZM79 16.4721C80.9477 16.4721 82.528 18.0506 82.528 20C82.528 21.9494 80.9494 23.528 79 23.528C77.0506 23.528 75.4721 21.9494 75.4721 20C75.4721 18.0523 77.0506 16.4721 79 16.4721ZM67.239 24.1251H67.2832L67.3241 24.1336L67.6507 24.2271L68.3005 24.4585L68.9349 24.7306L69.5507 25.0419L70.1461 25.3906L70.7176 25.7768L71.2654 26.1969L71.7859 26.6511L72.2758 27.1376L72.7368 27.6564L73.1637 28.2025L73.5567 28.774L73.9122 29.3694L74.2303 29.9869L74.5093 30.6214L74.7474 31.2729L74.8495 31.6199L74.8546 31.6556L74.858 31.6964V31.7372L74.8563 31.7781L74.8512 31.8172L74.8427 31.8563L74.8325 31.8954L74.8189 31.9329L74.8019 31.9703L74.7831 32.006L74.7627 32.04L74.7355 32.0775L74.7066 32.1115L74.6743 32.1421L74.6403 32.171L74.6045 32.1965L74.5671 32.2203L74.528 32.2408L74.4872 32.2578L74.4446 32.2714L74.4021 32.2816L74.3579 32.2884L74.3137 32.2918H74.2694L74.2252 32.2884L74.181 32.2816L74.1384 32.2714L74.1112 32.2629C70.7347 30.9139 68.0453 28.2093 66.7168 24.8225L66.71 24.7936L66.7032 24.7579L66.6981 24.7204V24.683V24.6456L66.7015 24.6082L66.7066 24.5724L66.7151 24.5367L66.7253 24.501L66.7372 24.4687L66.7559 24.4279L66.7763 24.3904L66.8001 24.3547L66.8274 24.3207L66.8563 24.2884L66.8886 24.2594L66.9226 24.2322L66.9583 24.2084L66.9958 24.188L67.0349 24.1693L67.0757 24.154L67.1182 24.1421L67.1608 24.1336L67.2033 24.1285H67.2475L67.239 24.1251ZM90.7594 24.1251H90.8036L90.8461 24.1302L90.8886 24.1387L90.9312 24.1506L90.972 24.1659L91.0111 24.1846L91.0485 24.205L91.0843 24.2288L91.1183 24.256L91.1506 24.285L91.1795 24.3173L91.2067 24.3513L91.2305 24.387L91.251 24.4244L91.2697 24.4653L91.2816 24.4976L91.2918 24.5333L91.3003 24.569L91.3054 24.6048L91.3088 24.6422V24.6796V24.717L91.3037 24.7545L91.2969 24.7902C89.9701 28.1923 87.2739 30.9105 83.8854 32.2629L83.865 32.2697L83.8225 32.2799L83.7783 32.2867L83.734 32.2901H83.6898L83.6456 32.2867L83.6014 32.2799L83.5588 32.2697L83.5163 32.2561L83.4755 32.2391L83.4364 32.2186L83.3989 32.1948L83.3632 32.1693L83.3292 32.1404L83.2969 32.1081L83.268 32.074L83.2407 32.0366L83.2203 32.0026L83.2016 31.9669L83.1846 31.9295L83.171 31.892L83.1608 31.8529L83.1523 31.8138L83.1472 31.7747V31.7338L83.1455 31.693L83.1489 31.6522L83.154 31.6165L83.256 31.2695L83.4942 30.618L83.7732 29.9835L84.0913 29.366L84.4468 28.7706L84.8397 28.1991L85.2667 27.653L85.7277 27.1342L86.2176 26.6477L86.7381 26.1935L87.2858 25.7734L87.8574 25.3872L88.4527 25.0385L89.0685 24.7272L89.703 24.4551L90.3528 24.2237L90.6794 24.1302L90.7202 24.1251H90.7645H90.7594ZM79 4C70.1631 4 63 11.1631 63 20C63 28.837 70.1631 36.0001 79 36.0001C87.837 36.0001 95.0001 28.837 95.0001 20C94.9984 11.1631 87.8353 4 79 4Z" fill="white"/>
</svg>
