<svg width="69" height="32" viewBox="0 0 69 32" fill="none" xmlns="http://www.w3.org/2000/svg">
<path d="M12.6032 1.38749C13.363 0.50651 14.4688 0 15.6322 0H64.9999C67.209 0 68.9999 1.79086 68.9999 4V28C68.9999 30.2091 67.209 32 64.9999 32H15.6322C14.4688 32 13.363 31.4935 12.6032 30.6125L2.25324 18.6125C0.958556 17.1114 0.958558 14.8886 2.25324 13.3875L12.6032 1.38749Z" fill="white"/>
<path d="M42.4367 9.93758C43.0221 9.35186 43.9727 9.35154 44.5587 9.9366C45.1447 10.5221 45.1451 11.4727 44.5597 12.0587L40.6203 15.9991L44.5597 19.9415C45.145 20.5274 45.1445 21.4771 44.5587 22.0626C43.9727 22.6482 43.0232 22.6476 42.4376 22.0616L38.5001 18.1212L34.5626 22.0616C33.9771 22.6476 33.0275 22.6482 32.4415 22.0626C31.856 21.477 31.8553 20.5274 32.4406 19.9415L36.379 15.9991L32.4406 12.0587C31.8555 11.4726 31.8557 10.522 32.4415 9.9366C33.0274 9.35138 33.9781 9.35202 34.5636 9.93758L38.5001 13.877L42.4367 9.93758Z" fill="#000D10"/>
</svg>
