<svg width="96" height="97" viewBox="0 0 96 97" fill="none" xmlns="http://www.w3.org/2000/svg">
<circle cx="48" cy="48.5" r="48" fill="#88750A"/>
<path d="M31.9764 26.117L28.3873 22.283C20 31.1201 20 37.5245 20 45.8H22.5455L25.0909 45.6299C25.0909 37.7243 25.0909 33.3692 31.9764 26.117ZM67.6102 22.283L64.0262 26.117C70.9091 33.3692 70.9091 37.7243 70.9091 45.8L76 45.6299C76 37.5245 76 31.1201 67.6102 22.283ZM48 75.5C49.5764 75.5021 51.1143 74.9832 52.3998 74.0154C53.6853 73.0477 54.6547 71.6791 55.1731 70.1H40.8269C41.3453 71.6791 42.3147 73.0477 43.6002 74.0154C44.8857 74.9832 46.4236 75.5021 48 75.5ZM65.8182 55.4822V43.1C65.8182 34.4141 60.2564 27.0971 52.7218 24.8966C51.976 22.904 50.1535 21.5 48 21.5C45.8465 21.5 44.024 22.904 43.2782 24.8966C35.7411 27.0971 30.1818 34.4141 30.1818 43.1V55.4822L25.8367 60.0911C25.5999 60.3414 25.4121 60.6389 25.2841 60.9665C25.1561 61.2941 25.0904 61.6454 25.0909 62V64.7C25.0909 65.4161 25.3591 66.1028 25.8365 66.6092C26.3138 67.1155 26.9613 67.4 27.6364 67.4H68.3636C69.0387 67.4 69.6862 67.1155 70.1635 66.6092C70.6409 66.1028 70.9091 65.4161 70.9091 64.7V62C70.9096 61.6454 70.8439 61.2941 70.7159 60.9665C70.5879 60.6389 70.4001 60.3414 70.1633 60.0911L65.8182 55.4822Z" fill="white"/>
</svg>
