<svg width="24" height="24" viewBox="0 0 24 24" fill="none" xmlns="http://www.w3.org/2000/svg">
<rect width="24" height="24" fill="white"/>
<path fill-rule="evenodd" clip-rule="evenodd" d="M23.3606 0.63904C24.2126 1.49109 24.2126 2.87254 23.3606 3.7246L3.72454 23.361C2.8725 24.213 1.49107 24.213 0.63903 23.361C-0.21301 22.5089 -0.21301 21.1275 0.63903 20.2754L20.2751 0.63904C21.1271 -0.213013 22.5086 -0.213013 23.3606 0.63904Z" fill="black"/>
<path fill-rule="evenodd" clip-rule="evenodd" d="M0.639397 0.63904C-0.212643 1.49109 -0.212643 2.87254 0.639397 3.7246L20.2755 23.361C21.1275 24.213 22.5089 24.213 23.361 23.361C24.213 22.5089 24.213 21.1275 23.361 20.2754L3.72491 0.63904C2.87287 -0.213013 1.49144 -0.213013 0.639397 0.63904Z" fill="black"/>
</svg>
