<svg width="201" height="200" viewBox="0 0 201 200" fill="none" xmlns="http://www.w3.org/2000/svg">
<circle cx="100.217" cy="100" r="92.5" stroke="#C80000" stroke-width="15"/>
<g clip-path="url(#clip0_28640_472074)">
<path d="M97.0975 53.6224C103.972 46.7477 112.222 43.3104 121.846 43.3104C131.471 43.3104 139.72 46.7477 146.595 53.6224C153.47 60.497 156.907 68.7466 156.907 78.3711C156.907 87.9956 153.47 96.2452 146.595 103.12C140.683 109.032 133.963 112.383 126.435 113.174C118.907 113.965 111.981 112.779 105.656 109.616L59.3252 155.948L44.2698 140.892L59.2526 125.909L72.2457 112.916L90.601 94.5609C87.4387 88.2362 86.2528 81.31 87.0434 73.7823C87.834 66.2545 91.1853 59.5346 97.0975 53.6224ZM114.834 71.359C112.84 73.3526 111.844 75.69 111.844 78.3711C111.844 81.0522 112.84 83.3896 114.834 85.3832C116.828 87.3769 119.165 88.3737 121.846 88.3737C124.527 88.3737 126.865 87.3769 128.858 85.3832C130.852 83.3896 131.849 81.0522 131.849 78.3711C131.849 75.69 130.852 73.3526 128.858 71.359C126.865 69.3653 124.527 68.3685 121.846 68.3685C119.165 68.3685 116.828 69.3653 114.834 71.359Z" fill="white"/>
<rect x="87.3545" y="108.538" width="15" height="22.085" transform="rotate(135 87.3545 108.538)" fill="white"/>
<rect x="70.5625" y="125.329" width="15" height="22.085" transform="rotate(135 70.5625 125.329)" fill="white"/>
</g>
<path d="M176.877 162.445L166.27 173.052L32.4364 39.2179L43.043 28.6113L176.877 162.445Z" fill="#C80000"/>
<defs>
<clipPath id="clip0_28640_472074">
<rect width="140" height="140" fill="white" transform="translate(200.217 98.9951) rotate(135)"/>
</clipPath>
</defs>
</svg>
