<svg width="24" height="24" viewBox="0 0 24 24" fill="none" xmlns="http://www.w3.org/2000/svg">
<path d="M8.53203 18L11.9987 14.5333L15.4654 18L17.332 16.1333L13.8654 12.6667L17.332 9.2L15.4654 7.33333L11.9987 10.8L8.53203 7.33333L6.66536 9.2L10.132 12.6667L6.66536 16.1333L8.53203 18ZM5.33203 24C4.5987 24 3.97092 23.7389 3.4487 23.2167C2.92648 22.6944 2.66536 22.0667 2.66536 21.3333V4H1.33203V1.33333H7.9987V0H15.9987V1.33333H22.6654V4H21.332V21.3333C21.332 22.0667 21.0709 22.6944 20.5487 23.2167C20.0265 23.7389 19.3987 24 18.6654 24H5.33203Z" fill="white"/>
</svg>
