<svg width="33" height="32" viewBox="0 0 33 32" fill="none" xmlns="http://www.w3.org/2000/svg">
<path d="M28.1322 25.9068L22.6914 20.7862C24.0014 19.145 24.7084 17.1473 24.706 15.0947C24.706 9.85159 20.1738 5.58594 14.603 5.58594C9.03226 5.58594 4.5 9.85159 4.5 15.0947C4.5 20.3378 9.03226 24.6034 14.603 24.6034C16.784 24.6057 18.9065 23.9401 20.6502 22.7073L26.091 27.8279C26.3664 28.0596 26.7256 28.1833 27.0948 28.1737C27.464 28.1639 27.8154 28.0214 28.0766 27.7756C28.3378 27.5297 28.489 27.1992 28.4994 26.8517C28.5098 26.5041 28.3784 26.166 28.1322 25.9068ZM7.38658 15.0947C7.38658 13.7514 7.80982 12.4382 8.60278 11.3213C9.39572 10.2043 10.5228 9.3338 11.8414 8.81973C13.1601 8.30565 14.611 8.17116 16.0109 8.43322C17.4108 8.6953 18.6966 9.34217 19.7058 10.292C20.715 11.2419 21.4024 12.4521 21.6808 13.7696C21.9592 15.0872 21.8164 16.4528 21.2702 17.6939C20.724 18.9349 19.799 19.9956 18.6123 20.742C17.4255 21.4883 16.0303 21.8866 14.603 21.8866C12.6898 21.8844 10.8556 21.1681 9.50276 19.8949C8.14992 18.6217 7.38888 16.8954 7.38658 15.0947Z" fill="white"/>
</svg>
