<svg width="36" height="36" viewBox="0 0 36 36" fill="none" xmlns="http://www.w3.org/2000/svg">
<path d="M21 31.0859V28.0109C23.25 27.3609 25.0625 26.1109 26.4375 24.2609C27.8125 22.4109 28.5 20.3109 28.5 17.9609C28.5 15.6109 27.8125 13.5109 26.4375 11.6609C25.0625 9.81094 23.25 8.56094 21 7.91094V4.83594C24.1 5.53594 26.625 7.10469 28.575 9.54219C30.525 11.9797 31.5 14.7859 31.5 17.9609C31.5 21.1359 30.525 23.9422 28.575 26.3797C26.625 28.8172 24.1 30.3859 21 31.0859ZM4.5 22.4984V13.4984H10.5L18 5.99844V29.9984L10.5 22.4984H4.5ZM21 23.9984V11.9234C22.175 12.4734 23.0938 13.2984 23.7563 14.3984C24.4188 15.4984 24.75 16.6984 24.75 17.9984C24.75 19.2734 24.4188 20.4547 23.7563 21.5422C23.0938 22.6297 22.175 23.4484 21 23.9984Z" fill="white"/>
</svg>
